<?xml version="1.0" encoding="utf-8"?>
<!-- Generator: Adobe Illustrator 25.4.1, SVG Export Plug-In . SVG Version: 6.00 Build 0)  -->
<svg version="1.1" id="Layer_1" xmlns="http://www.w3.org/2000/svg" xmlns:xlink="http://www.w3.org/1999/xlink" x="0px" y="0px"
	 viewBox="0 0 300 37" style="enable-background:new 0 0 300 37;" xml:space="preserve">
<style type="text/css">
	.st0{clip-path:url(#SVGID_00000171000605136842327220000003085309972961781143_);}
	.st1{clip-path:url(#SVGID_00000083054754295925168520000004062171656204455814_);fill:#E71D25;}
	.st2{clip-path:url(#SVGID_00000083054754295925168520000004062171656204455814_);fill:#FFFFFF;}
</style>
<g id="Adobe_Experience_Cloud_Horizontal_On-Tile_Red_00000074418695599301720160000013119128506626772921_">
	<g>
		<defs>
			<rect id="SVGID_1_" y="0" width="300" height="36.6"/>
		</defs>
		<clipPath id="SVGID_00000015315423834921322180000017744920148837265338_">
			<use xlink:href="#SVGID_1_"  style="overflow:visible;"/>
		</clipPath>
		<g style="clip-path:url(#SVGID_00000015315423834921322180000017744920148837265338_);">
			<defs>
				<rect id="SVGID_00000039120791211312449090000017086464718923677628_" y="0" width="300" height="36.6"/>
			</defs>
			<clipPath id="SVGID_00000012452327025675036480000015226047269996430232_">
				<use xlink:href="#SVGID_00000039120791211312449090000017086464718923677628_"  style="overflow:visible;"/>
			</clipPath>
			<path style="clip-path:url(#SVGID_00000012452327025675036480000015226047269996430232_);fill:#E71D25;" d="M6.7,0h24.3
				c3.7,0,6.7,3,6.7,6.7V30c0,3.7-3,6.7-6.7,6.7H6.7C3,36.6,0,33.7,0,30V6.7C0,3,3,0,6.7,0"/>
			<path style="clip-path:url(#SVGID_00000012452327025675036480000015226047269996430232_);fill:#FFFFFF;" d="M29.2,27.6h-4.5
				c-0.4,0-0.8-0.2-0.9-0.6L19,15.6c0-0.1-0.2-0.2-0.3-0.1c-0.1,0-0.1,0.1-0.1,0.1l-3,7.2c-0.1,0.1,0,0.3,0.1,0.3c0,0,0.1,0,0.1,0
				h3.3c0.2,0,0.4,0.1,0.5,0.3l1.5,3.2c0.1,0.3,0,0.7-0.3,0.8c-0.1,0-0.2,0-0.2,0H8.4c-0.3,0-0.5-0.2-0.5-0.6c0-0.1,0-0.1,0-0.2
				l7.7-18.3c0.2-0.4,0.5-0.7,1-0.6H21c0.4,0,0.8,0.3,1,0.6l7.7,18.3c0.1,0.3,0,0.6-0.3,0.7C29.4,27.5,29.3,27.6,29.2,27.6"/>
			<path style="clip-path:url(#SVGID_00000012452327025675036480000015226047269996430232_);fill:#E71D25;" d="M52.4,22l-1.2,3.7
				c-0.1,0.1-0.1,0.2-0.3,0.2H48c-0.2,0-0.2-0.1-0.2-0.3l5-14.5c0.1-0.3,0.2-0.6,0.3-1.5c0-0.1,0.1-0.2,0.1-0.2h4
				c0.1,0,0.2,0,0.2,0.2l5.7,16.1c0,0.1,0,0.2-0.1,0.2h-3.3c-0.2,0-0.2-0.1-0.3-0.2L58.2,22H52.4z M57.3,18.9
				c-0.5-1.7-1.5-4.7-2-6.5h0c-0.4,1.7-1.3,4.4-2,6.5H57.3z"/>
			<path style="clip-path:url(#SVGID_00000012452327025675036480000015226047269996430232_);fill:#E71D25;" d="M63.3,19.8
				c0-3.6,2.7-6.6,7.3-6.6c0.2,0,0.5,0,0.8,0.1V8.3c0-0.1,0.1-0.2,0.2-0.2h3.2c0.1,0,0.2,0.1,0.2,0.2v14.8c0,0.6,0,1.3,0.1,1.8
				c0,0.1,0,0.2-0.2,0.2c-1.7,0.7-3.4,1-4.9,1C66.2,26.2,63.3,24.1,63.3,19.8 M71.4,16.2c-0.3-0.1-0.6-0.1-0.9-0.1
				c-1.9,0-3.6,1.2-3.6,3.5c0,2.5,1.4,3.6,3.3,3.6c0.4,0,0.8,0,1.2-0.2V16.2z"/>
			<path style="clip-path:url(#SVGID_00000012452327025675036480000015226047269996430232_);fill:#E71D25;" d="M89.1,19.6
				c0,3.9-2.6,6.6-6.2,6.6c-4.3,0-6.2-3.2-6.2-6.5c0-3.6,2.4-6.5,6.3-6.5C87,13.2,89.1,16.2,89.1,19.6 M80.2,19.6
				c0,2.2,1,3.6,2.7,3.6c1.5,0,2.6-1.3,2.6-3.6c0-2-0.8-3.6-2.7-3.6C81.3,16.1,80.2,17.4,80.2,19.6"/>
			<path style="clip-path:url(#SVGID_00000012452327025675036480000015226047269996430232_);fill:#E71D25;" d="M94.1,8.1
				c0.2,0,0.3,0,0.3,0.2v5.1c0.7-0.2,1.4-0.3,2.1-0.3c3.7,0,6,2.6,6,6c0,4.7-3.7,7-7.5,7c-1.3,0-2.7-0.2-3.9-0.6
				c-0.1,0-0.2-0.2-0.2-0.3v-17c0-0.1,0.1-0.2,0.2-0.2H94.1z M95.8,16.2c-0.8,0-1.2,0.1-1.5,0.2v6.8c0.3,0.1,0.6,0.1,0.9,0.1
				c1.9,0,3.6-1.2,3.6-3.8C98.9,17.2,97.6,16.2,95.8,16.2"/>
			<path style="clip-path:url(#SVGID_00000012452327025675036480000015226047269996430232_);fill:#E71D25;" d="M107.2,20.6
				c0.1,1.4,1.1,2.6,3.6,2.6c1.1,0,2.1-0.2,3.1-0.6c0.1-0.1,0.2,0,0.2,0.1v2.4c0,0.2-0.1,0.3-0.2,0.3c-1,0.5-2.1,0.7-3.8,0.7
				c-4.7,0-6.4-3.2-6.4-6.4c0-3.5,2.1-6.6,6.1-6.6c3.8,0,5.3,2.9,5.3,5.4c0,0.8,0,1.4-0.1,1.7c0,0.1-0.1,0.2-0.2,0.2
				c-0.3,0.1-1.3,0.1-2.6,0.1H107.2z M110.4,18.2c0.8,0,1.2,0,1.3-0.1v-0.2c0-0.6-0.5-2-2.1-2c-1.6,0-2.3,1.2-2.4,2.2H110.4z"/>
			<path style="clip-path:url(#SVGID_00000012452327025675036480000015226047269996430232_);fill:#E71D25;" d="M133.4,25.7
				c0,0.2-0.1,0.2-0.3,0.2h-10.2c-0.2,0-0.2-0.1-0.2-0.2v-16c0-0.2,0.1-0.2,0.2-0.2h9.9c0.2,0,0.3,0,0.3,0.2l0.3,2.7
				c0,0.1,0,0.2-0.2,0.2h-7V16h6.4c0.1,0,0.2,0.1,0.2,0.2v2.8c0,0.2-0.1,0.2-0.2,0.2h-6.4v3.7h7.4c0.2,0,0.2,0.1,0.2,0.2L133.4,25.7
				z"/>
			<path style="clip-path:url(#SVGID_00000012452327025675036480000015226047269996430232_);fill:#E71D25;" d="M134.3,13.7
				c-0.1-0.1-0.1-0.3,0.1-0.3h3.5c0.2,0,0.3,0.1,0.3,0.2l2.1,4.1h0.1l2.3-4.2c0.1-0.2,0.1-0.2,0.2-0.2h3.1c0.1,0,0.2,0.1,0.1,0.2
				c-0.8,1.4-2.8,4.6-3.7,5.9c1.2,1.8,3.1,4.8,4,6.1c0.1,0.1,0,0.2-0.2,0.2h-3.6c-0.2,0-0.3-0.1-0.3-0.2l-2.2-4.2h0l-2.3,4.2
				c0,0.1-0.1,0.2-0.3,0.2h-3.1c-0.2,0-0.2-0.1-0.1-0.3c1-1.5,2.7-4.4,3.8-5.9L134.3,13.7z"/>
			<path style="clip-path:url(#SVGID_00000012452327025675036480000015226047269996430232_);fill:#E71D25;" d="M159.2,19.3
				c0,4.6-3.8,6.9-7.7,6.9c-0.1,0-0.3,0-0.5,0v4.3c0,0.1,0,0.2-0.2,0.2c-1,0.1-3,0.3-3.1,0.3c-0.2,0-0.2-0.1-0.2-0.2V16
				c0-0.4-0.1-1.3-0.1-1.7c0,0,0-0.1,0.1-0.1c1.3-0.4,3.1-1,5.3-1C157.2,13.2,159.2,16.2,159.2,19.3 M151,16.4v6.9
				c0.2,0,0.6,0,0.8,0c1.7,0,3.8-1,3.8-3.7c0-2.2-1.1-3.4-3.1-3.4C151.9,16.2,151.5,16.2,151,16.4"/>
			<path style="clip-path:url(#SVGID_00000012452327025675036480000015226047269996430232_);fill:#E71D25;" d="M163.8,20.6
				c0.1,1.4,1.1,2.6,3.6,2.6c1.1,0,2.1-0.2,3.1-0.6c0.1-0.1,0.2,0,0.2,0.1v2.4c0,0.2-0.1,0.3-0.2,0.3c-1,0.5-2.1,0.7-3.8,0.7
				c-4.7,0-6.4-3.2-6.4-6.4c0-3.5,2.1-6.6,6.1-6.6c3.8,0,5.3,2.9,5.3,5.4c0,0.8,0,1.4-0.1,1.7c0,0.1-0.1,0.2-0.2,0.2
				c-0.3,0.1-1.3,0.1-2.6,0.1H163.8z M167.1,18.2c0.8,0,1.2,0,1.3-0.1v-0.2c0-0.6-0.5-2-2.1-2c-1.6,0-2.3,1.2-2.4,2.2H167.1z"/>
			<path style="clip-path:url(#SVGID_00000012452327025675036480000015226047269996430232_);fill:#E71D25;" d="M176.2,13.4
				c0.2,0,0.3,0.1,0.3,0.2c0.1,0.3,0.3,0.9,0.3,1.4c0.8-1,2.2-1.9,4-1.9c0.2,0,0.2,0.1,0.2,0.2v3.1c0,0.1,0,0.2-0.2,0.2
				c-1.8-0.1-3.3,0.5-3.8,1.1l0,8c0,0.1-0.1,0.2-0.2,0.2h-3c-0.2,0-0.3-0.1-0.3-0.2V17c0-1.1,0-2.5-0.1-3.4c0-0.1,0-0.2,0.2-0.2
				H176.2z"/>
			<path style="clip-path:url(#SVGID_00000012452327025675036480000015226047269996430232_);fill:#E71D25;" d="M181.9,10.2
				c0-1.1,0.8-1.9,2-1.9c1.2,0,1.9,0.8,1.9,1.9c0,1.2-0.8,2-2,2C182.7,12.1,181.9,11.3,181.9,10.2 M182.1,13.6
				c0-0.1,0.1-0.2,0.2-0.2h3.1c0.2,0,0.2,0.1,0.2,0.2v12.1c0,0.1,0,0.2-0.2,0.2h-3c-0.2,0-0.3-0.1-0.3-0.2V13.6z"/>
			<path style="clip-path:url(#SVGID_00000012452327025675036480000015226047269996430232_);fill:#E71D25;" d="M190.9,20.6
				c0.1,1.4,1.1,2.6,3.6,2.6c1.1,0,2.1-0.2,3.1-0.6c0.1-0.1,0.2,0,0.2,0.1v2.4c0,0.2-0.1,0.3-0.2,0.3c-1,0.5-2.1,0.7-3.8,0.7
				c-4.7,0-6.4-3.2-6.4-6.4c0-3.5,2.1-6.6,6.1-6.6c3.8,0,5.3,2.9,5.3,5.4c0,0.8,0,1.4-0.1,1.7c0,0.1-0.1,0.2-0.2,0.2
				c-0.3,0.1-1.3,0.1-2.6,0.1H190.9z M194.2,18.2c0.8,0,1.2,0,1.3-0.1v-0.2c0-0.6-0.5-2-2.1-2c-1.6,0-2.3,1.2-2.4,2.2H194.2z"/>
			<path style="clip-path:url(#SVGID_00000012452327025675036480000015226047269996430232_);fill:#E71D25;" d="M200.5,16.4
				c0-0.9-0.1-2.2-0.1-2.7c0-0.1,0-0.2,0.2-0.2h2.6c0.2,0,0.3,0.1,0.3,0.2c0.1,0.2,0.2,0.5,0.2,0.8c1.1-0.9,2.2-1.3,3.6-1.3
				c1.9,0,4.2,1,4.2,5v7.5c0,0.1-0.1,0.2-0.2,0.2h-3c-0.2,0-0.3-0.1-0.3-0.2v-7.2c0-1.5-0.7-2.3-2-2.3c-0.9,0-1.6,0.3-2.1,0.8v8.7
				c0,0.1-0.1,0.2-0.2,0.2h-3c-0.2,0-0.2-0.1-0.2-0.2V16.4z"/>
			<path style="clip-path:url(#SVGID_00000012452327025675036480000015226047269996430232_);fill:#E71D25;" d="M222.8,25.6
				c0,0.1,0,0.2-0.1,0.2c-0.8,0.3-1.8,0.4-2.8,0.4c-4.1,0-6.6-2.7-6.6-6.4c0-3.8,2.8-6.6,7.1-6.6c1.2,0,1.9,0.1,2.3,0.3
				c0.1,0.1,0.2,0.1,0.2,0.3l0,2.6c0,0.2-0.1,0.2-0.2,0.2c-0.5-0.2-1.2-0.3-2.1-0.3c-2.1,0-3.6,1.2-3.6,3.4c0,2.6,1.9,3.5,3.7,3.5
				c0.9,0,1.7-0.1,2.1-0.2c0.2-0.1,0.2,0,0.2,0.1V25.6z"/>
			<path style="clip-path:url(#SVGID_00000012452327025675036480000015226047269996430232_);fill:#E71D25;" d="M227.3,20.6
				c0.1,1.4,1.1,2.6,3.6,2.6c1.1,0,2.1-0.2,3.1-0.6c0.1-0.1,0.2,0,0.2,0.1v2.4c0,0.2-0.1,0.3-0.2,0.3c-1,0.5-2.1,0.7-3.8,0.7
				c-4.7,0-6.4-3.2-6.4-6.4c0-3.5,2.1-6.6,6.1-6.6c3.8,0,5.3,2.9,5.3,5.4c0,0.8,0,1.4-0.1,1.7c0,0.1-0.1,0.2-0.2,0.2
				c-0.3,0.1-1.3,0.1-2.6,0.1H227.3z M230.6,18.2c0.8,0,1.2,0,1.3-0.1v-0.2c0-0.6-0.5-2-2.1-2c-1.6,0-2.3,1.2-2.4,2.2H230.6z"/>
			<path style="clip-path:url(#SVGID_00000012452327025675036480000015226047269996430232_);fill:#E71D25;" d="M254.3,25.4
				c0,0.2-0.1,0.3-0.2,0.4c-0.8,0.3-2.1,0.5-3.5,0.5c-4.9,0-8.7-2.9-8.7-8.4c0-5.1,3.5-8.6,9.1-8.6c1.6,0,2.6,0.1,3.3,0.4
				c0.1,0,0.2,0.2,0.2,0.3v2.7c0,0.2-0.1,0.2-0.2,0.2c-0.8-0.4-2-0.6-3.3-0.6c-3.4,0-5.4,2.1-5.4,5.3c0,3.9,2.9,5.4,5.5,5.4
				c1.2,0,2.2-0.1,3.1-0.4c0.1-0.1,0.2,0,0.2,0.1V25.4z"/>
			<path style="clip-path:url(#SVGID_00000012452327025675036480000015226047269996430232_);fill:#E71D25;" d="M255.9,8.3
				c0-0.1,0.1-0.2,0.3-0.2h3c0.2,0,0.3,0.1,0.3,0.2v14.1c0,0.7,0.2,1,0.8,1c0.2,0,0.2,0,0.5,0c0.1,0,0.1,0.1,0.1,0.2v2.2
				c0,0.2,0,0.3-0.2,0.3c-0.3,0.1-0.8,0.2-1.6,0.2c-1.8,0-3.2-0.7-3.2-3.5V8.3z"/>
			<path style="clip-path:url(#SVGID_00000012452327025675036480000015226047269996430232_);fill:#E71D25;" d="M273.9,19.6
				c0,3.9-2.6,6.6-6.2,6.6c-4.3,0-6.2-3.2-6.2-6.5c0-3.6,2.4-6.5,6.3-6.5C271.8,13.2,273.9,16.2,273.9,19.6 M265.1,19.6
				c0,2.2,1,3.6,2.7,3.6c1.5,0,2.6-1.3,2.6-3.6c0-2-0.8-3.6-2.7-3.6C266.2,16.1,265.1,17.4,265.1,19.6"/>
			<path style="clip-path:url(#SVGID_00000012452327025675036480000015226047269996430232_);fill:#E71D25;" d="M286.5,23.1
				c0,1.3,0.1,2.1,0.2,2.6c0,0.1-0.1,0.2-0.2,0.2h-2.7c-0.2,0-0.3-0.1-0.3-0.2c-0.1-0.2-0.1-0.6-0.2-0.8c-1.1,1-2.4,1.2-3.4,1.2
				c-2.5,0-4.2-1.4-4.2-4.8v-7.7c0-0.2,0.1-0.2,0.2-0.2h3.1c0.2,0,0.2,0.1,0.2,0.2v7.3c0,1.4,0.6,2.2,2,2.2c0.8,0,1.4-0.3,2-0.7
				v-8.8c0-0.2,0.1-0.2,0.3-0.2h3c0.2,0,0.2,0.1,0.2,0.2V23.1z"/>
			<path style="clip-path:url(#SVGID_00000012452327025675036480000015226047269996430232_);fill:#E71D25;" d="M288.3,19.8
				c0-3.6,2.7-6.6,7.3-6.6c0.2,0,0.5,0,0.8,0.1V8.3c0-0.1,0.1-0.2,0.2-0.2h3.2c0.1,0,0.2,0.1,0.2,0.2v14.8c0,0.6,0,1.3,0.1,1.8
				c0,0.1,0,0.2-0.2,0.2c-1.7,0.7-3.4,1-4.9,1C291.2,26.2,288.3,24.1,288.3,19.8 M296.4,16.2c-0.3-0.1-0.6-0.1-0.9-0.1
				c-1.9,0-3.6,1.2-3.6,3.5c0,2.5,1.4,3.6,3.3,3.6c0.4,0,0.8,0,1.2-0.2V16.2z"/>
		</g>
	</g>
</g>
</svg>
